<?xml version="1.0" encoding="UTF-8" standalone="no"?>
<svg
   xmlns:dc="http://purl.org/dc/elements/1.1/"
   xmlns:cc="http://creativecommons.org/ns#"
   xmlns:rdf="http://www.w3.org/1999/02/22-rdf-syntax-ns#"
   xmlns:svg="http://www.w3.org/2000/svg"
   xmlns="http://www.w3.org/2000/svg"
   xmlns:sodipodi="http://sodipodi.sourceforge.net/DTD/sodipodi-0.dtd"
   xmlns:inkscape="http://www.inkscape.org/namespaces/inkscape"
   viewBox="0 0 172 61"
   height="61"
   width="172"
   xml:space="preserve"
   id="svg2"
   version="1.1"
   sodipodi:docname="UBO_Atlas.svg"
   inkscape:version="0.92.3 (2405546, 2018-03-11)"><sodipodi:namedview
     pagecolor="#ffffff"
     bordercolor="#666666"
     borderopacity="1"
     objecttolerance="10"
     gridtolerance="10"
     guidetolerance="10"
     inkscape:pageopacity="0"
     inkscape:pageshadow="2"
     inkscape:window-width="1920"
     inkscape:window-height="1056"
     id="namedview28"
     showgrid="false"
     inkscape:zoom="5.4366197"
     inkscape:cx="54.065258"
     inkscape:cy="8.9409532"
     inkscape:window-x="0"
     inkscape:window-y="24"
     inkscape:window-maximized="1"
     inkscape:current-layer="svg2" /><metadata
     id="metadata8"><rdf:RDF><cc:Work
         rdf:about=""><dc:format>image/svg+xml</dc:format><dc:type
           rdf:resource="http://purl.org/dc/dcmitype/StillImage" /><dc:title></dc:title></cc:Work></rdf:RDF></metadata><defs
     id="defs6"><clipPath
       id="clipPath18"
       clipPathUnits="userSpaceOnUse"><path
         id="path16"
         d="M 0,200 H 680 V 0 H 0 Z"
         inkscape:connector-curvature="0" /></clipPath><clipPath
       id="clipPath62"
       clipPathUnits="userSpaceOnUse"><path
         id="path60"
         d="M 21.701,188.993 H 198.745 V 92.9925 H 21.701 Z"
         inkscape:connector-curvature="0" /></clipPath><clipPath
       id="clipPath78"
       clipPathUnits="userSpaceOnUse"><path
         id="path76"
         d="M 104.336,189 H 199 V 94.1604 h -94.664 z"
         inkscape:connector-curvature="0" /></clipPath><clipPath
       id="clipPath94"
       clipPathUnits="userSpaceOnUse"><path
         id="path92"
         d="m 21.701,147.998 h 96 V 51.9979 h -96 z"
         inkscape:connector-curvature="0" /></clipPath></defs><g
     transform="matrix(1.5683188,0,0,-1.5678293,2.6752108,54.390218)"
     id="g10"><text
   y="-10.647941"
   x="39.597076"
   id="text108"
   style="font-variant:normal;font-weight:bold;font-stretch:normal;font-size:12.30335903px;font-family:Montserrat;-inkscape-font-specification:Montserrat-Bold;writing-mode:lr-tb;fill:#3d4a4c;fill-opacity:1;fill-rule:nonzero;stroke:none;stroke-width:0.17087997"
   transform="scale(1,-1)"><tspan
     style="fill:#ffffff;fill-opacity:1;stroke-width:0.17087997"
     id="tspan940"
     y="-10.647941"
     x="39.597076">UBO Atlas</tspan></text>


<path
   id="path22-3"
   style="display:inline;fill:#e6e6e6;fill-opacity:1;fill-rule:nonzero;stroke:none;stroke-width:0.171518"
   d="m 7.4246694,28.965571 c 0,-0.755042 -0.6165962,-1.367207 -1.3770973,-1.367207 -0.760504,0 -1.3771001,0.612165 -1.3771001,1.367207 0,0.75504 0.6165961,1.367207 1.3771001,1.367207 0.7605011,0 1.3770973,-0.612167 1.3770973,-1.367207"
   inkscape:connector-curvature="0" /><path
   id="path26-6"
   style="display:inline;fill:#e6e6e6;fill-opacity:1;fill-rule:nonzero;stroke:none;stroke-width:0.171518"
   d="m 7.4246694,15.293506 c 0,-0.75504 -0.6165962,-1.367207 -1.3770973,-1.367207 -0.760504,0 -1.3771001,0.612167 -1.3771001,1.367207 0,0.755041 0.6165961,1.367207 1.3771001,1.367207 0.7605011,0 1.3770973,-0.612166 1.3770973,-1.367207"
   inkscape:connector-curvature="0" /><path
   id="path30-7"
   style="display:inline;fill:#e6e6e6;fill-opacity:1;fill-rule:nonzero;stroke:none;stroke-width:0.171518"
   d="m 7.4246694,1.6214438 c 0,-0.75503996 -0.6165962,-1.36720687 -1.3770973,-1.36720687 -0.760504,0 -1.3771001,0.61216691 -1.3771001,1.36720687 0,0.75504 0.6165961,1.3672069 1.3771001,1.3672069 0.7605011,0 1.3770973,-0.6121669 1.3770973,-1.3672069"
   inkscape:connector-curvature="0" /><path
   id="path34-5"
   style="display:inline;fill:#e6e6e6;fill-opacity:1;fill-rule:nonzero;stroke:none;stroke-width:0.171518"
   d="m 21.19567,28.965571 c 0,-0.755042 -0.616596,-1.367207 -1.3771,-1.367207 -0.760502,0 -1.377098,0.612165 -1.377098,1.367207 0,0.75504 0.616596,1.367207 1.377098,1.367207 0.760504,0 1.3771,-0.612167 1.3771,-1.367207"
   inkscape:connector-curvature="0" /><path
   id="path38-3"
   style="display:inline;fill:#e6e6e6;fill-opacity:1;fill-rule:nonzero;stroke:none;stroke-width:0.171518"
   d="m 21.19567,15.293506 c 0,-0.75504 -0.616596,-1.367207 -1.3771,-1.367207 -0.760502,0 -1.377098,0.612167 -1.377098,1.367207 0,0.755041 0.616596,1.367207 1.377098,1.367207 0.760504,0 1.3771,-0.612166 1.3771,-1.367207"
   inkscape:connector-curvature="0" /><path
   id="path42-5"
   style="display:inline;fill:#e6e6e6;fill-opacity:1;fill-rule:nonzero;stroke:none;stroke-width:0.171518"
   d="m 21.19567,1.6214438 c 0,-0.75503996 -0.616596,-1.36720687 -1.3771,-1.36720687 -0.760502,0 -1.377098,0.61216691 -1.377098,1.36720687 0,0.75504 0.616596,1.3672069 1.377098,1.3672069 0.760504,0 1.3771,-0.6121669 1.3771,-1.3672069"
   inkscape:connector-curvature="0" /><path
   id="path46-6"
   style="display:inline;fill:#e6e6e6;fill-opacity:1;fill-rule:nonzero;stroke:none;stroke-width:0.171518"
   d="m 34.966667,28.965571 c 0,-0.755042 -0.616596,-1.367207 -1.377097,-1.367207 -0.760507,0 -1.377101,0.612165 -1.377101,1.367207 0,0.75504 0.616594,1.367207 1.377101,1.367207 0.760501,0 1.377097,-0.612167 1.377097,-1.367207"
   inkscape:connector-curvature="0" /><path
   id="path50-2"
   style="display:inline;fill:#e6e6e6;fill-opacity:1;fill-rule:nonzero;stroke:none;stroke-width:0.171518"
   d="m 34.966667,15.293506 c 0,-0.75504 -0.616596,-1.367207 -1.377097,-1.367207 -0.760507,0 -1.377101,0.612167 -1.377101,1.367207 0,0.755041 0.616594,1.367207 1.377101,1.367207 0.760501,0 1.377097,-0.612166 1.377097,-1.367207"
   inkscape:connector-curvature="0" /><path
   id="path54-9"
   style="display:inline;fill:#e6e6e6;fill-opacity:1;fill-rule:nonzero;stroke:none;stroke-width:0.171518"
   d="m 34.966667,1.6214438 c 0,-0.75503996 -0.616596,-1.36720687 -1.377097,-1.36720687 -0.760507,0 -1.377101,0.61216691 -1.377101,1.36720687 0,0.75504 0.616594,1.3672069 1.377101,1.3672069 0.760501,0 1.377097,-0.6121669 1.377097,-1.3672069"
   inkscape:connector-curvature="0" /><path
   id="path64-1"
   style="display:inline;opacity:0.89999402;fill:none;stroke:#19bbbd;stroke-width:2.74429846;stroke-linecap:butt;stroke-linejoin:bevel;stroke-miterlimit:10;stroke-dasharray:none;stroke-opacity:1"
   d="M 11.556144,23.427392 H 33.590101 V 16.734141 L 33.590272,1.6210083 11.556183,1.6218622 Z"
   inkscape:connector-curvature="0" /><path
   id="path96-2"
   style="display:inline;opacity:0.89999402;fill:none;stroke:#c33f27;stroke-width:2.74429822;stroke-linecap:butt;stroke-linejoin:bevel;stroke-miterlimit:10;stroke-dasharray:none;stroke-opacity:1"
   d="M 16.86295,28.965613 H 33.590225 V 6.5348791 Z"
   inkscape:connector-curvature="0" /><path
   id="path128"
   style="display:inline;opacity:0.75;fill:none;stroke:#81c78a;stroke-width:2.74429846;stroke-linecap:butt;stroke-linejoin:bevel;stroke-miterlimit:10;stroke-dasharray:none;stroke-opacity:1"
   d="m 8.8018663,8.4576618 c 0,3.7753342 3.6993677,6.8360352 8.2627997,6.8360352 4.56343,0 8.102587,-3.060701 8.102587,-6.8360352 0,-3.775523 -3.539253,-6.8363547 -8.102686,-6.8363547 -4.563432,0 -8.2627007,3.0608317 -8.2627007,6.8363547 z"
   inkscape:connector-curvature="0" /></g></svg>