<?xml version="1.0" encoding="UTF-8" standalone="no"?>
<svg
   xmlns:dc="http://purl.org/dc/elements/1.1/"
   xmlns:cc="http://creativecommons.org/ns#"
   xmlns:rdf="http://www.w3.org/1999/02/22-rdf-syntax-ns#"
   xmlns:svg="http://www.w3.org/2000/svg"
   xmlns="http://www.w3.org/2000/svg"
   xmlns:sodipodi="http://sodipodi.sourceforge.net/DTD/sodipodi-0.dtd"
   xmlns:inkscape="http://www.inkscape.org/namespaces/inkscape"
   viewBox="0 0 172 61"
   height="61"
   width="172"
   xml:space="preserve"
   id="svg2"
   version="1.1"
   sodipodi:docname="UBO_Atlas.svg"
   inkscape:version="0.92.3 (2405546, 2018-03-11)"><sodipodi:namedview
     pagecolor="#ffffff"
     bordercolor="#666666"
     borderopacity="1"
     objecttolerance="10"
     gridtolerance="10"
     guidetolerance="10"
     inkscape:pageopacity="0"
     inkscape:pageshadow="2"
     inkscape:window-width="1920"
     inkscape:window-height="1056"
     id="namedview28"
     showgrid="false"
     inkscape:zoom="3.8442707"
     inkscape:cx="116.71452"
     inkscape:cy="-1.1157108"
     inkscape:window-x="0"
     inkscape:window-y="24"
     inkscape:window-maximized="1"
     inkscape:current-layer="svg2" /><metadata
     id="metadata8"><rdf:RDF><cc:Work
         rdf:about=""><dc:format>image/svg+xml</dc:format><dc:type
           rdf:resource="http://purl.org/dc/dcmitype/StillImage" /><dc:title /></cc:Work></rdf:RDF></metadata><defs
     id="defs6"><clipPath
       id="clipPath18"
       clipPathUnits="userSpaceOnUse"><path
         id="path16"
         d="M 0,200 H 680 V 0 H 0 Z"
         inkscape:connector-curvature="0" /></clipPath><clipPath
       id="clipPath62"
       clipPathUnits="userSpaceOnUse"><path
         id="path60"
         d="M 21.701,188.993 H 198.745 V 92.9925 H 21.701 Z"
         inkscape:connector-curvature="0" /></clipPath><clipPath
       id="clipPath78"
       clipPathUnits="userSpaceOnUse"><path
         id="path76"
         d="M 104.336,189 H 199 V 94.1604 h -94.664 z"
         inkscape:connector-curvature="0" /></clipPath><clipPath
       id="clipPath94"
       clipPathUnits="userSpaceOnUse"><path
         id="path92"
         d="m 21.701,147.998 h 96 V 51.9979 h -96 z"
         inkscape:connector-curvature="0" /></clipPath></defs><g
     transform="matrix(1.5683188,0,0,-1.5678293,2.6752108,54.390218)"
     id="g10"><g
   aria-label="UBO Atlas"
   transform="scale(1,-1)"
   style="font-variant:normal;font-weight:bold;font-stretch:normal;font-size:12.30335903px;font-family:Montserrat;-inkscape-font-specification:Montserrat-Bold;writing-mode:lr-tb;fill:#3d4a4c;fill-opacity:1;fill-rule:nonzero;stroke:none;stroke-width:0.17087997"
   id="text108"><path
     d="m 42.931287,-12.862545 q 0.479831,0.590561 1.291852,0.590561 0.812022,0 1.27955,-0.590561 0.479831,-0.602865 0.479831,-1.636347 v -4.749097 h 1.919324 v 4.810614 q 0,1.87011 -1.033482,2.878986 -1.033483,0.996572 -2.645223,0.996572 -1.61174,0 -2.657525,-1.008876 -1.033482,-1.008875 -1.033482,-2.866682 v -4.810614 h 1.919324 v 4.749097 q 0,1.033482 0.479831,1.636347 z"
     style="fill:#ffffff;fill-opacity:1;stroke-width:0.17087997"
     id="path837" /><path
     d="m 53.671543,-10.647941 h -3.764828 v -8.600048 h 3.346514 q 0.873538,0 1.501009,0.209158 0.639775,0.209157 0.959662,0.565954 0.578258,0.664381 0.578258,1.50101 0,1.008875 -0.652078,1.50101 -0.22146,0.172247 -0.307584,0.22146 -0.08612,0.03691 -0.307584,0.135337 0.799719,0.172247 1.267246,0.725898 0.479831,0.541348 0.479831,1.35337 0,0.898145 -0.615168,1.587133 -0.713594,0.799718 -2.485278,0.799718 z m -1.845504,-5.118197 h 0.910449 q 0.799718,0 1.181122,-0.172247 0.393708,-0.172247 0.393708,-0.738202 0,-0.578257 -0.356798,-0.762808 -0.356797,-0.18455 -1.205729,-0.18455 h -0.922752 z m 0,3.494154 h 1.316459 q 0.824325,0 1.230336,-0.196854 0.418315,-0.209157 0.418315,-0.799718 0,-0.602865 -0.442921,-0.787415 -0.430618,-0.196854 -1.39028,-0.196854 h -1.131909 z"
     style="fill:#ffffff;fill-opacity:1;stroke-width:0.17087997"
     id="path839" /><path
     d="m 64.971601,-14.991026 q 0,-1.156516 -0.738202,-1.968538 -0.738201,-0.812022 -1.820897,-0.812022 -1.070392,0 -1.808594,0.812022 -0.738201,0.812022 -0.738201,1.968538 0,1.144212 0.738201,1.956234 0.738202,0.799718 1.808594,0.799718 1.082696,0 1.820897,-0.799718 0.738202,-0.812022 0.738202,-1.956234 z m 0.652078,3.161963 q -1.304156,1.267246 -3.211177,1.267246 -1.90702,0 -3.211177,-1.267246 -1.304156,-1.279549 -1.304156,-3.174267 0,-1.894717 1.304156,-3.161963 1.304157,-1.279549 3.211177,-1.279549 1.907021,0 3.211177,1.279549 1.304156,1.267246 1.304156,3.161963 0,1.894718 -1.304156,3.174267 z"
     style="fill:#ffffff;fill-opacity:1;stroke-width:0.17087997"
     id="path841" /><path
     d="m 77.925116,-10.647941 -0.799719,-1.857807 h -3.604884 l -0.799718,1.857807 h -2.042358 l 3.715615,-8.600048 h 1.857807 l 3.715614,8.600048 z m -2.596009,-6.040949 -1.082696,2.497582 h 2.153088 z"
     style="fill:#ffffff;fill-opacity:1;stroke-width:0.17087997"
     id="path843" /><path
     d="m 82.634804,-15.938385 v 2.96511 q 0,0.381404 0.196853,0.602864 0.196854,0.209157 0.467528,0.209157 0.516741,0 0.873538,-0.467527 l 0.688989,1.291852 q -0.861236,0.787415 -1.820898,0.787415 -0.947358,0 -1.61174,-0.627471 -0.652078,-0.627471 -0.652078,-1.710167 v -3.051233 h -0.775111 v -1.328763 h 0.775111 v -1.980841 h 1.857808 v 1.980841 h 1.599436 v 1.328763 z"
     style="fill:#ffffff;fill-opacity:1;stroke-width:0.17087997"
     id="path845" /><path
     d="m 87.684756,-10.647941 h -1.845504 v -9.129092 h 1.845504 z"
     style="fill:#ffffff;fill-opacity:1;stroke-width:0.17087997"
     id="path847" /><path
     d="m 95.066387,-10.647941 h -1.734774 v -0.799718 q -0.713595,0.898145 -1.771683,0.898145 -1.045786,0 -1.759381,-0.602864 -0.713595,-0.615168 -0.713595,-1.624044 0,-1.021179 0.738202,-1.525616 0.738201,-0.504438 2.017751,-0.504438 h 1.377976 v -0.03691 q 0,-1.058089 -1.119606,-1.058089 -0.479831,0 -1.021178,0.196854 -0.529045,0.18455 -0.898146,0.467527 l -0.824325,-1.193425 q 1.304156,-0.947359 2.977413,-0.947359 1.205729,0 1.968538,0.602865 0.762808,0.602864 0.762808,1.90702 z m -1.857807,-2.522188 v -0.319888 h -1.156516 q -1.107302,0 -1.107302,0.688989 0,0.356797 0.25837,0.553651 0.270674,0.18455 0.762808,0.18455 0.492135,0 0.861236,-0.295281 0.381404,-0.307584 0.381404,-0.812021 z"
     style="fill:#ffffff;fill-opacity:1;stroke-width:0.17087997"
     id="path849" /><path
     d="m 101.73173,-12.702602 q 0,0.971966 -0.7259,1.562527 -0.71359,0.590561 -1.820895,0.590561 -0.738201,0 -1.537919,-0.25837 -0.799719,-0.270674 -1.439493,-0.787415 l 0.812021,-1.156516 q 1.033482,0.799718 2.202302,0.799718 0.356797,0 0.565954,-0.135337 0.209157,-0.14764 0.209157,-0.381404 0,-0.233764 -0.29528,-0.430617 -0.282978,-0.196854 -0.836629,-0.369101 -0.541348,-0.172247 -0.836628,-0.295281 -0.282978,-0.123033 -0.652078,-0.356797 -0.750505,-0.467528 -0.750505,-1.377976 0,-0.922752 0.738201,-1.50101 0.738202,-0.578258 1.907021,-0.578258 1.168821,0 2.337641,0.787415 l -0.68899,1.230336 q -0.86124,-0.590561 -1.722471,-0.590561 -0.848932,0 -0.848932,0.467527 0,0.258371 0.270674,0.406011 0.270674,0.14764 0.898145,0.344494 0.627474,0.196854 0.885844,0.307584 0.27067,0.09843 0.63977,0.319887 0.68899,0.418315 0.68899,1.402583 z"
     style="fill:#ffffff;fill-opacity:1;stroke-width:0.17087997"
     id="path851" /></g>


<path
   id="path22-3"
   style="display:inline;fill:#e6e6e6;fill-opacity:1;fill-rule:nonzero;stroke:none;stroke-width:0.171518"
   d="m 7.4246694,28.965571 c 0,-0.755042 -0.6165962,-1.367207 -1.3770973,-1.367207 -0.760504,0 -1.3771001,0.612165 -1.3771001,1.367207 0,0.75504 0.6165961,1.367207 1.3771001,1.367207 0.7605011,0 1.3770973,-0.612167 1.3770973,-1.367207"
   inkscape:connector-curvature="0" /><path
   id="path26-6"
   style="display:inline;fill:#e6e6e6;fill-opacity:1;fill-rule:nonzero;stroke:none;stroke-width:0.171518"
   d="m 7.4246694,15.293506 c 0,-0.75504 -0.6165962,-1.367207 -1.3770973,-1.367207 -0.760504,0 -1.3771001,0.612167 -1.3771001,1.367207 0,0.755041 0.6165961,1.367207 1.3771001,1.367207 0.7605011,0 1.3770973,-0.612166 1.3770973,-1.367207"
   inkscape:connector-curvature="0" /><path
   id="path30-7"
   style="display:inline;fill:#e6e6e6;fill-opacity:1;fill-rule:nonzero;stroke:none;stroke-width:0.171518"
   d="m 7.4246694,1.6214438 c 0,-0.75503996 -0.6165962,-1.36720687 -1.3770973,-1.36720687 -0.760504,0 -1.3771001,0.61216691 -1.3771001,1.36720687 0,0.75504 0.6165961,1.3672069 1.3771001,1.3672069 0.7605011,0 1.3770973,-0.6121669 1.3770973,-1.3672069"
   inkscape:connector-curvature="0" /><path
   id="path34-5"
   style="display:inline;fill:#e6e6e6;fill-opacity:1;fill-rule:nonzero;stroke:none;stroke-width:0.171518"
   d="m 21.19567,28.965571 c 0,-0.755042 -0.616596,-1.367207 -1.3771,-1.367207 -0.760502,0 -1.377098,0.612165 -1.377098,1.367207 0,0.75504 0.616596,1.367207 1.377098,1.367207 0.760504,0 1.3771,-0.612167 1.3771,-1.367207"
   inkscape:connector-curvature="0" /><path
   id="path38-3"
   style="display:inline;fill:#e6e6e6;fill-opacity:1;fill-rule:nonzero;stroke:none;stroke-width:0.171518"
   d="m 21.19567,15.293506 c 0,-0.75504 -0.616596,-1.367207 -1.3771,-1.367207 -0.760502,0 -1.377098,0.612167 -1.377098,1.367207 0,0.755041 0.616596,1.367207 1.377098,1.367207 0.760504,0 1.3771,-0.612166 1.3771,-1.367207"
   inkscape:connector-curvature="0" /><path
   id="path42-5"
   style="display:inline;fill:#e6e6e6;fill-opacity:1;fill-rule:nonzero;stroke:none;stroke-width:0.171518"
   d="m 21.19567,1.6214438 c 0,-0.75503996 -0.616596,-1.36720687 -1.3771,-1.36720687 -0.760502,0 -1.377098,0.61216691 -1.377098,1.36720687 0,0.75504 0.616596,1.3672069 1.377098,1.3672069 0.760504,0 1.3771,-0.6121669 1.3771,-1.3672069"
   inkscape:connector-curvature="0" /><path
   id="path46-6"
   style="display:inline;fill:#e6e6e6;fill-opacity:1;fill-rule:nonzero;stroke:none;stroke-width:0.171518"
   d="m 34.966667,28.965571 c 0,-0.755042 -0.616596,-1.367207 -1.377097,-1.367207 -0.760507,0 -1.377101,0.612165 -1.377101,1.367207 0,0.75504 0.616594,1.367207 1.377101,1.367207 0.760501,0 1.377097,-0.612167 1.377097,-1.367207"
   inkscape:connector-curvature="0" /><path
   id="path50-2"
   style="display:inline;fill:#e6e6e6;fill-opacity:1;fill-rule:nonzero;stroke:none;stroke-width:0.171518"
   d="m 34.966667,15.293506 c 0,-0.75504 -0.616596,-1.367207 -1.377097,-1.367207 -0.760507,0 -1.377101,0.612167 -1.377101,1.367207 0,0.755041 0.616594,1.367207 1.377101,1.367207 0.760501,0 1.377097,-0.612166 1.377097,-1.367207"
   inkscape:connector-curvature="0" /><path
   id="path54-9"
   style="display:inline;fill:#e6e6e6;fill-opacity:1;fill-rule:nonzero;stroke:none;stroke-width:0.171518"
   d="m 34.966667,1.6214438 c 0,-0.75503996 -0.616596,-1.36720687 -1.377097,-1.36720687 -0.760507,0 -1.377101,0.61216691 -1.377101,1.36720687 0,0.75504 0.616594,1.3672069 1.377101,1.3672069 0.760501,0 1.377097,-0.6121669 1.377097,-1.3672069"
   inkscape:connector-curvature="0" /><path
   id="path64-1"
   style="display:inline;opacity:0.89999402;fill:none;stroke:#19bbbd;stroke-width:2.74429846;stroke-linecap:butt;stroke-linejoin:bevel;stroke-miterlimit:10;stroke-dasharray:none;stroke-opacity:1"
   d="M 11.556144,23.427392 H 33.590101 V 16.734141 L 33.590272,1.6210083 11.556183,1.6218622 Z"
   inkscape:connector-curvature="0" /><path
   id="path96-2"
   style="display:inline;opacity:0.89999402;fill:none;stroke:#c33f27;stroke-width:2.74429822;stroke-linecap:butt;stroke-linejoin:bevel;stroke-miterlimit:10;stroke-dasharray:none;stroke-opacity:1"
   d="M 16.86295,28.965613 H 33.590225 V 6.5348791 Z"
   inkscape:connector-curvature="0" /><path
   id="path128"
   style="display:inline;opacity:0.75;fill:none;stroke:#81c78a;stroke-width:2.74429846;stroke-linecap:butt;stroke-linejoin:bevel;stroke-miterlimit:10;stroke-dasharray:none;stroke-opacity:1"
   d="m 8.8018663,8.4576618 c 0,3.7753342 3.6993677,6.8360352 8.2627997,6.8360352 4.56343,0 8.102587,-3.060701 8.102587,-6.8360352 0,-3.775523 -3.539253,-6.8363547 -8.102686,-6.8363547 -4.563432,0 -8.2627007,3.0608317 -8.2627007,6.8363547 z"
   inkscape:connector-curvature="0" /></g></svg>